<?xml version="1.0" standalone="no"?>
<!DOCTYPE svg PUBLIC "-//W3C//DTD SVG 20010904//EN"
 "http://www.w3.org/TR/2001/REC-SVG-20010904/DTD/svg10.dtd">
<svg version="1.0" xmlns="http://www.w3.org/2000/svg"
 width="1000.000000pt" height="1000.000000pt" viewBox="0 0 1000.000000 1000.000000"
 preserveAspectRatio="xMidYMid meet">
<metadata>
Created by potrace 1.11, written by Peter Selinger 2001-2013
</metadata>
<g transform="translate(0.000000,1000.000000) scale(0.100000,-0.100000)"
fill="#000000" stroke="none">
<path d="M5406 9443 c-1 -1 -55 -5 -121 -8 -66 -3 -131 -8 -145 -10 -14 -2
-59 -7 -100 -10 -41 -3 -86 -8 -100 -10 -14 -2 -45 -7 -70 -10 -45 -6 -78 -11
-115 -19 -11 -2 -40 -7 -65 -11 -25 -4 -54 -9 -65 -11 -11 -2 -31 -6 -45 -9
-180 -34 -505 -133 -690 -212 -184 -78 -488 -240 -498 -265 -2 -4 -8 -8 -14
-8 -14 0 -220 -156 -292 -221 -361 -326 -609 -743 -706 -1186 -29 -133 -28
-125 -46 -263 -2 -14 -7 -72 -10 -130 -26 -407 38 -786 184 -1088 134 -277
385 -576 674 -802 57 -44 108 -84 114 -89 24 -19 204 -130 269 -166 307 -169
645 -322 1187 -541 169 -67 326 -131 350 -142 24 -10 63 -27 88 -37 246 -99
629 -279 772 -362 86 -51 244 -172 324 -251 88 -85 164 -174 164 -191 0 -6 4
-11 8 -11 10 0 73 -126 95 -190 36 -106 47 -192 43 -335 -5 -158 -8 -178 -43
-290 -71 -226 -224 -418 -445 -559 -169 -107 -452 -217 -643 -250 -16 -2 -66
-11 -110 -20 -45 -8 -112 -17 -150 -21 -39 -4 -79 -10 -90 -12 -36 -10 -697
-11 -785 -3 -47 5 -112 12 -145 15 -368 36 -715 143 -928 285 -62 42 -187 164
-210 205 -44 81 -57 106 -75 160 -12 33 -26 87 -31 120 -9 56 -6 264 4 330 3
17 7 53 10 80 3 28 8 66 11 85 11 71 13 86 19 160 24 281 -3 401 -122 525 -79
84 -194 147 -308 170 -150 31 -315 24 -440 -16 -297 -98 -473 -395 -522 -879
-10 -96 -10 -390 -1 -500 21 -236 87 -477 185 -674 44 -88 136 -238 164 -266
8 -8 22 -26 31 -38 48 -71 222 -232 343 -319 122 -88 401 -242 505 -278 3 -1
19 -7 35 -14 201 -85 571 -188 775 -217 19 -2 46 -7 60 -10 14 -4 39 -8 55 -9
17 -2 48 -6 70 -9 265 -36 478 -49 815 -49 268 0 495 10 640 28 19 3 60 7 90
10 30 3 62 7 70 9 8 3 42 7 75 11 235 25 651 131 925 237 156 60 479 219 488
241 2 4 8 7 13 7 14 0 225 145 303 210 184 149 351 336 466 520 152 242 258
530 300 815 6 44 13 91 16 105 21 124 22 543 0 645 -2 11 -7 40 -10 65 -21
157 -101 394 -182 540 -170 308 -470 613 -816 830 -101 63 -514 274 -699 357
-52 23 -124 56 -161 72 -37 17 -96 42 -130 57 -35 14 -81 34 -103 44 -63 28
-195 82 -375 155 -231 93 -331 135 -440 183 -25 11 -83 36 -130 57 -298 130
-542 264 -700 383 -92 70 -271 246 -329 325 -90 122 -160 296 -178 443 -10 74
-9 272 0 342 39 290 184 532 426 712 85 63 109 77 229 136 88 43 303 120 361
130 14 3 42 9 61 14 75 19 236 44 355 55 39 3 95 8 125 11 75 7 411 7 485 0
197 -19 205 -21 330 -46 203 -41 360 -96 510 -178 294 -162 427 -379 420 -688
-2 -101 -9 -191 -20 -289 -3 -22 -7 -62 -11 -89 -3 -28 -7 -52 -9 -55 -6 -11
-17 -187 -17 -281 0 -173 48 -284 177 -406 121 -114 267 -168 455 -168 229 0
393 78 529 254 125 160 214 444 238 759 15 190 8 522 -12 621 -2 13 -7 41 -10
62 -22 145 -107 377 -193 523 -33 58 -66 110 -72 115 -3 3 -25 32 -49 65 -69
92 -265 284 -377 367 -279 207 -580 343 -999 451 -66 17 -237 52 -300 61 -22
4 -65 11 -95 16 -30 5 -86 12 -125 15 -38 4 -81 8 -95 10 -87 13 -663 29 -674
18z"/>
</g>
</svg>
